<?xml version="1.0" encoding="utf-8"?>
<!-- Generator: Adobe Illustrator 25.0.1, SVG Export Plug-In . SVG Version: 6.00 Build 0)  -->
<svg version="1.1" xmlns="http://www.w3.org/2000/svg" xmlns:xlink="http://www.w3.org/1999/xlink" x="0px" y="0px"
	 viewBox="0 0 749.38 749.38" style="enable-background:new 0 0 749.38 749.38;" xml:space="preserve">
<g id="j">
	<g>
		<g>
			<g>
				<rect x="344.35" y="250.24" width="36.97" height="214.19"/>
				<path d="M380.83,250.74v213.19h-35.97V250.74H380.83 M381.83,249.74h-37.97v215.19h37.97V249.74L381.83,249.74z"/>
			</g>
			<g>
				<path d="M236.49,605.37c-38.02,0-73.45-12.88-99.75-36.27c-29.53-26.26-45.18-63.7-45.27-108.3h36.6
					c0.32,73.92,56.22,107.59,108.14,107.59c28.32,0,54.71-9.6,74.31-27.03c21.99-19.55,33.65-47.4,33.74-80.56h37.35
					c-0.15,44.61-15.83,82.06-45.38,108.31C309.92,592.49,274.49,605.37,236.49,605.37z"/>
				<path d="M362.93,461.3l18.17,0c-0.26,44.25-15.88,81.38-45.21,107.44c-13.24,11.76-28.82,20.88-46.3,27.1
					c-16.87,6-34.74,9.04-53.11,9.04c-18.38,0-36.25-3.04-53.13-9.04c-17.49-6.22-33.06-15.34-46.3-27.1
					c-29.31-26.07-44.9-63.19-45.1-107.42l17.8,0l17.8,0c0.56,73.92,56.59,107.59,108.64,107.59c28.44,0,54.95-9.64,74.64-27.16
					c21.99-19.55,33.7-47.35,33.9-80.44L362.93,461.3 M362.93,460.3c-6.39,0-12.78,0-19.18,0c0.06,71.71-53.73,107.59-107.55,107.59
					c-53.78,0-107.58-35.85-107.64-107.59c-6.27,0-12.53,0-18.8,0s-12.53,0-18.8,0c-0.06,97.03,72.72,145.57,145.52,145.57
					c72.77,0,145.55-48.5,145.62-145.57C375.71,460.3,369.32,460.3,362.93,460.3L362.93,460.3z"/>
			</g>
		</g>
		<g>
			<rect x="128.22" y="151.18" width="333.22" height="35.06"/>
			<path d="M460.94,151.68v34.06H128.72v-34.06H460.94 M461.94,150.68H127.72v36.06h334.22V150.68L461.94,150.68z"/>
		</g>
		<g>
			<rect x="127.25" y="153.19" width="35.06" height="104.76"/>
			<path d="M161.8,153.69v103.76h-34.06V153.69H161.8 M162.8,152.69h-36.06v105.76h36.06V152.69L162.8,152.69z"/>
		</g>
		<g>
			<rect x="466.32" y="255.01" transform="matrix(0.9999 -0.0101 0.0101 0.9999 -2.7171 5.3291)" width="123.29" height="35.06"/>
			<path d="M588.93,254.9l0.34,34.06l-122.28,1.23l-0.34-34.06L588.93,254.9 M589.92,253.89l-124.28,1.25L466,291.2l124.28-1.25
				L589.92,253.89L589.92,253.89z"/>
		</g>
		<g>
			<rect x="555.15" y="182.86" transform="matrix(0.9999 -0.0101 0.0101 0.9999 -2.3398 5.7786)" width="35.06" height="104.76"/>
			<path d="M589.19,183.19l1.04,103.75l-34.06,0.34l-1.04-103.75L589.19,183.19 M590.18,182.18l-36.06,0.36l1.06,105.75l36.06-0.36
				L590.18,182.18L590.18,182.18z"/>
		</g>
	</g>
</g>
<g id="cursor">
	<g>
		<rect x="628.69" y="124.04" width="10.95" height="493.95"/>
		<path d="M639.14,124.53v492.95h-9.95V124.53H639.14 M640.14,123.53h-11.95v494.95h11.95V123.53L640.14,123.53z"/>
	</g>
</g>
<g id="period">
	<g>
		<rect x="413.24" y="524.76" width="48.68" height="50.31"/>
		<path d="M461.42,525.26v49.31h-47.68v-49.31H461.42 M462.42,524.26h-49.68v51.31h49.68V524.26L462.42,524.26z"/>
	</g>
</g>
</svg>
